<svg id="graphDiv" width="100%" xmlns="http://www.w3.org/2000/svg" xmlns:xlink="http://www.w3.org/1999/xlink" height="501.25" style="max-width: 838.688px; width: 100%; height: 100%; overflow: visible; transform: scale(1.2) translate(136.5px, -25px);" viewBox="-22.5 -22.5 838.6875 501.25"><style>#graphDiv{font-family:"trebuchet ms",verdana,arial,sans-serif;font-size:16px;fill:#333;}#graphDiv .error-icon{fill:#552222;}#graphDiv .error-text{fill:#552222;stroke:#552222;}#graphDiv .edge-thickness-normal{stroke-width:2px;}#graphDiv .edge-thickness-thick{stroke-width:3.5px;}#graphDiv .edge-pattern-solid{stroke-dasharray:0;}#graphDiv .edge-pattern-dashed{stroke-dasharray:3;}#graphDiv .edge-pattern-dotted{stroke-dasharray:2;}#graphDiv .marker{fill:#333333;}#graphDiv .marker.cross{stroke:#333333;}#graphDiv svg{font-family:"trebuchet ms",verdana,arial,sans-serif;font-size:16px;}#graphDiv g.classGroup text{fill:#9370DB;fill:#131300;stroke:none;font-family:"trebuchet ms",verdana,arial,sans-serif;font-size:10px;}#graphDiv g.classGroup text .title{font-weight:bolder;}#graphDiv .classTitle{font-weight:bolder;}#graphDiv .node rect,#graphDiv .node circle,#graphDiv .node ellipse,#graphDiv .node polygon,#graphDiv .node path{fill:#ECECFF;stroke:#9370DB;stroke-width:1px;}#graphDiv .divider{stroke:#9370DB;stroke:1;}#graphDiv g.clickable{cursor:pointer;}#graphDiv g.classGroup rect{fill:#ECECFF;stroke:#9370DB;}#graphDiv g.classGroup line{stroke:#9370DB;stroke-width:1;}#graphDiv .classLabel .box{stroke:none;stroke-width:0;fill:#ECECFF;opacity:0.5;}#graphDiv .classLabel .label{fill:#9370DB;font-size:10px;}#graphDiv .relation{stroke:#333333;stroke-width:1;fill:none;}#graphDiv .dashed-line{stroke-dasharray:3;}#graphDiv #compositionStart,#graphDiv .composition{fill:#333333 !important;stroke:#333333 !important;stroke-width:1;}#graphDiv #compositionEnd,#graphDiv .composition{fill:#333333 !important;stroke:#333333 !important;stroke-width:1;}#graphDiv #dependencyStart,#graphDiv .dependency{fill:#333333 !important;stroke:#333333 !important;stroke-width:1;}#graphDiv #dependencyStart,#graphDiv .dependency{fill:#333333 !important;stroke:#333333 !important;stroke-width:1;}#graphDiv #extensionStart,#graphDiv .extension{fill:#333333 !important;stroke:#333333 !important;stroke-width:1;}#graphDiv #extensionEnd,#graphDiv .extension{fill:#333333 !important;stroke:#333333 !important;stroke-width:1;}#graphDiv #aggregationStart,#graphDiv .aggregation{fill:#ECECFF !important;stroke:#333333 !important;stroke-width:1;}#graphDiv #aggregationEnd,#graphDiv .aggregation{fill:#ECECFF !important;stroke:#333333 !important;stroke-width:1;}#graphDiv .edgeTerminals{font-size:11px;}#graphDiv .label div{padding:5px 24px;}#graphDiv .label{font-family:Inter,Arial,sans-serif;color:#ffffff;font-size:15px;font-weight:500;}#graphDiv li{font-family:Inter,Arial,sans-serif;color:#ffffff;font-size:13px;padding-left:0.5em;font-weight:500;text-align:left;}#graphDiv li:first-of-type{padding-top:7px;}#graphDiv ul{margin-top:8px;margin-bottom:1rem;margin-left:-50px;border-top:1px solid #5ae1a8;width:500%;list-style-type:none;}#graphDiv .node rect{fill:#51a0f4;stroke:#51a0f4;color:#ffffff;}#graphDiv .edgeLabel{color:#b9b9b9;background-color:transparent;font-size:12px;}#graphDiv .edge-thickness-normal{stroke-width:1px;!important;}#graphDiv .path{stroke:#d5d5d5 !important;}#graphDiv .edgeLabel{color:#353535;font-size:11px;font-weight:600;}#graphDiv .flowchart-link{stroke:#c0c4ce !important;}#graphDiv #extensionEnd{fill:white;}#graphDiv .cluster rect{fill:#e8f5ff;stroke:#3c60cc;stroke-width:1px;opacity:0.3;stroke-dasharray:6;}#graphDiv .cluster .nodeLabel{font-size:14px;color:#92a7cc;}#graphDiv .fa{padding:0 4px 4px 0 !important;-webkit-transform:scale(1.2);-ms-transform:scale(1.2);transform:scale(1.2);}#graphDiv rect[rx="5"]{fill:#22d097 !important;stroke:#22d097 !important;}#graphDiv rect[rx^="23"]{fill:#f47474 !important;stroke:#f47474 !important;}#graphDiv circle[rx="0"]{fill:#9B84D0;stroke:#9370DB;stroke-width:1px;}#graphDiv .node path{fill:#FF9555 !important;stroke:#FFAB61 !important;stroke-width:1px;}#graphDiv .node polygon{fill:#FF7B65 !important;stroke:#FF7B65 !important;stroke-width:1px;}#graphDiv .node polygon[points*="0,-"]{fill:#3B5DAE !important;stroke:#FFF !important;}#graphDiv .node path + .label ul{border-top:1px solid #FFAB61;}#graphDiv .node polygon + .label ul{border-top:1px solid #5e7ed0;}#graphDiv rect[class="er entityBox"]{fill:#2ea2f7 !important;stroke:#2ea2f7 !important;}#graphDiv marker{fill:#000;}#graphDiv text[class="er entityLabel"]{fill:#ffffff;font-weight:600;font-size:15px !important;font-family:Oxygen,Arial,sans-serif !important;}#graphDiv rect[class="er attributeBoxOdd"]{fill:#0d7ed1 !important;stroke:#2ea2f7 !important;}#graphDiv rect[class="er attributeBoxEven"]{fill:#74b4e3 !important;stroke:#2ea2f7 !important;}#graphDiv text[class="er relationshipLabel"]{fill:#353535;font-weight:600;font-size:11px !important;font-family:Oxygen,Arial,sans-serif !important;}#graphDiv text[class="actor"] &gt; tspan{fill:#ffffff;font-weight:600 !important;font-size:15px !important;font-family:Oxygen,Arial,sans-serif !important;}#graphDiv polygon[class="labelBox"]{fill:#b3d6ee !important;stroke:#93b4c9 !important;}#graphDiv line[class="loopLine"]{fill:#93b4c9 !important;stroke:#93b4c9 !important;}#graphDiv rect[class="actor"]{fill:#2ea2f7;stroke:#2ea2f7;}#graphDiv text[class="noteText"] &gt; tspan{fill:#ffffff;font-weight:600 !important;font-size:13px !important;font-family:Oxygen,Arial,sans-serif !important;}#graphDiv rect[class="note"]{fill:#3B5DAE;stroke:#2b4480;}#graphDiv rect[class=" classShape"]{fill:#2ea2f7 !important;stroke:#2ea2f7 !important;}#graphDiv g.classGroup line{stroke:#2283c9 !important;}#graphDiv g.classGroup text{fill:#ffffff !important;font-weight:600 !important;font-family:Oxygen,Arial,sans-serif !important;}#graphDiv g.classLabel .label{fill:#3B5DAE !important;font-weight:600 !important;font-family:Oxygen,Arial,sans-serif !important;}#graphDiv:root{--mermaid-font-family:"trebuchet ms",verdana,arial,sans-serif;}#graphDiv class{fill:apa;}</style><g></g><defs><marker id="extensionStart" class="extension" refX="0" refY="7" markerWidth="190" markerHeight="240" orient="auto"><path d="M 1,7 L18,13 V 1 Z"></path></marker></defs><defs><marker id="extensionEnd" refX="19" refY="7" markerWidth="20" markerHeight="28" orient="auto"><path d="M 1,1 V 13 L18,7 Z"></path></marker></defs><defs><marker id="compositionStart" class="extension" refX="0" refY="7" markerWidth="190" markerHeight="240" orient="auto"><path d="M 18,7 L9,13 L1,7 L9,1 Z"></path></marker></defs><defs><marker id="compositionEnd" refX="19" refY="7" markerWidth="20" markerHeight="28" orient="auto"><path d="M 18,7 L9,13 L1,7 L9,1 Z"></path></marker></defs><defs><marker id="aggregationStart" class="extension" refX="0" refY="7" markerWidth="190" markerHeight="240" orient="auto"><path d="M 18,7 L9,13 L1,7 L9,1 Z"></path></marker></defs><defs><marker id="aggregationEnd" refX="19" refY="7" markerWidth="20" markerHeight="28" orient="auto"><path d="M 18,7 L9,13 L1,7 L9,1 Z"></path></marker></defs><defs><marker id="dependencyStart" class="extension" refX="0" refY="7" markerWidth="190" markerHeight="240" orient="auto"><path d="M 5,7 L9,13 L1,7 L9,1 Z"></path></marker></defs><defs><marker id="dependencyEnd" refX="19" refY="7" markerWidth="20" markerHeight="28" orient="auto"><path d="M 18,7 L9,13 L14,7 L9,1 Z"></path></marker></defs><g id="classid-User-1751" class="classGroup" transform="translate(144.69140625,374.0625 )"><rect x="0" y="0" width="68.359375" height="84.6875" class=" classShape"></rect><text y="15" x="0"><tspan class="title" x="20.953125">User</tspan></text><line x1="0" y1="23.34375" y2="23.34375" x2="68.359375"></line><text x="5" y="33.34375" fill="white" class="classText"><tspan x="5">- id</tspan><tspan x="5" dy="10">- nickname</tspan><tspan x="5" dy="10">- password</tspan><tspan x="5" dy="10">- createdAt</tspan><tspan x="5" dy="10">- deletedAt</tspan></text><line x1="0" y1="79.015625" y2="79.015625" x2="68.359375"></line><text x="5" y="94.015625" fill="white" class="classText"></text></g><g id="classid-Message-1752" class="classGroup" transform="translate(0,114.6875 )"><rect x="0" y="0" width="72.25" height="84.6875" class=" classShape"></rect><text y="15" x="0"><tspan class="title" x="11.65625">Message</tspan></text><line x1="0" y1="23.34375" y2="23.34375" x2="72.25"></line><text x="5" y="33.34375" fill="white" class="classText"><tspan x="5">- idMessage</tspan><tspan x="5" dy="10">- idUser</tspan><tspan x="5" dy="10">- idChat</tspan><tspan x="5" dy="10">- content</tspan><tspan x="5" dy="10">- datetime</tspan></text><line x1="0" y1="79.015625" y2="79.015625" x2="72.25"></line><text x="5" y="94.015625" fill="white" class="classText"></text></g><g id="classid-Comment-1753" class="classGroup" transform="translate(29.41796875,259.375 )"><rect x="0" y="0" width="104.453125" height="64.6875" class=" classShape"></rect><text y="15" x="0"><tspan class="title" x="26.109375">Comment</tspan></text><line x1="0" y1="23.34375" y2="23.34375" x2="104.453125"></line><text x="5" y="33.34375" fill="white" class="classText"><tspan x="5">- idComment</tspan><tspan x="5" dy="10">- contentComment</tspan><tspan x="5" dy="10">- createdAt</tspan></text><line x1="0" y1="59.015625" y2="59.015625" x2="104.453125"></line><text x="5" y="74.015625" fill="white" class="classText"></text></g><g id="classid-Teacher-1754" class="classGroup" transform="translate(122.25,116.296875 )"><rect x="0" y="0" width="105.1875" height="81.46875" class=" classShape"></rect><text y="15" x="0"><tspan class="title" x="29.578125">Teacher</tspan></text><line x1="0" y1="23.34375" y2="23.34375" x2="105.1875"></line><text x="5" y="33.34375" fill="white" class="classText"><tspan x="5">- mail</tspan><tspan x="5" dy="10">- nameTeacher</tspan><tspan x="5" dy="10">- firstnameTeacher</tspan></text><line x1="0" y1="59.015625" y2="59.015625" x2="105.1875"></line><text x="5" y="74.015625" fill="white" class="classText"><tspan x="5">+createGroup()</tspan></text></g><g id="classid-Group-1755" class="classGroup" transform="translate(329.18359375,264.375 )"><rect x="0" y="0" width="89.578125" height="54.6875" class=" classShape"></rect><text y="15" x="0"><tspan class="title" x="28.09375">Group</tspan></text><line x1="0" y1="23.34375" y2="23.34375" x2="89.578125"></line><text x="5" y="33.34375" fill="white" class="classText"><tspan x="5">- idTeacher</tspan><tspan x="5" dy="10">- countSucceed</tspan></text><line x1="0" y1="49.015625" y2="49.015625" x2="89.578125"></line><text x="5" y="64.015625" fill="white" class="classText"></text></g><g id="classid-Chat-1756" class="classGroup" transform="translate(134.78515625,0 )"><rect x="0" y="0" width="68.171875" height="54.6875" class=" classShape"></rect><text y="15" x="0"><tspan class="title" x="21.3828125">Chat</tspan></text><line x1="0" y1="23.34375" y2="23.34375" x2="68.171875"></line><text x="5" y="33.34375" fill="white" class="classText"><tspan x="5">- idChat</tspan><tspan x="5" dy="10">- idTeacher</tspan></text><line x1="0" y1="49.015625" y2="49.015625" x2="68.171875"></line><text x="5" y="64.015625" fill="white" class="classText"></text></g><g id="classid-Children-1757" class="classGroup" transform="translate(277.4375,124.6875 )"><rect x="0" y="0" width="91.234375" height="64.6875" class=" classShape"></rect><text y="15" x="0"><tspan class="title" x="22.53125">Children</tspan></text><line x1="0" y1="23.34375" y2="23.34375" x2="91.234375"></line><text x="5" y="33.34375" fill="white" class="classText"><tspan x="5">- idChildren</tspan><tspan x="5" dy="10">- nameChild</tspan><tspan x="5" dy="10">- firstnameChild</tspan></text><line x1="0" y1="59.015625" y2="59.015625" x2="91.234375"></line><text x="5" y="74.015625" fill="white" class="classText"></text></g><g id="classid-Status-1758" class="classGroup" transform="translate(438.671875,104.6875 )"><rect x="0" y="0" width="105.6875" height="104.6875" class=" classShape"></rect><text y="15" x="0"><tspan class="title" x="35.09375">Status</tspan></text><line x1="0" y1="23.34375" y2="23.34375" x2="105.6875"></line><text x="5" y="33.34375" fill="white" class="classText"><tspan x="5">- idGroup</tspan><tspan x="5" dy="10">- idChallenge</tspan><tspan x="5" dy="10">- statusInt</tspan><tspan x="5" dy="10">- countHelp</tspan><tspan x="5" dy="10">- needHelpBoolean</tspan><tspan x="5" dy="10">- startedAt</tspan><tspan x="5" dy="10">- finishedAt</tspan></text><line x1="0" y1="99.015625" y2="99.015625" x2="105.6875"></line><text x="5" y="114.015625" fill="white" class="classText"></text></g><g id="classid-Challenge-1759" class="classGroup" transform="translate(498.671875,375.84375 )"><rect x="0" y="0" width="114.9375" height="81.125" class=" classShape"></rect><text y="15" x="0"><tspan x="32.453125">«abstract»</tspan><tspan class="title" dy="10" x="30.0078125">Challenge</tspan></text><line x1="0" y1="31.5625" y2="31.5625" x2="114.9375"></line><text x="5" y="41.5625" fill="white" class="classText"><tspan x="5">- id</tspan><tspan x="5" dy="10">- name</tspan><tspan x="5" dy="10">- description</tspan><tspan x="5" dy="10">- difficulty</tspan></text><line x1="0" y1="77.234375" y2="77.234375" x2="114.9375"></line><text x="5" y="92.234375" fill="white" class="classText"></text></g><g id="classid-PrivateChallenge-1760" class="classGroup" transform="translate(692.578125,259.375 )"><rect x="0" y="0" width="103.609375" height="64.6875" class=" classShape"></rect><text y="15" x="0"><tspan class="title" x="5">PrivateChallenge</tspan></text><line x1="0" y1="23.34375" y2="23.34375" x2="103.609375"></line><text x="5" y="33.34375" fill="white" class="classText"><tspan x="5">- createdAt</tspan><tspan x="5" dy="10">- deletedAt</tspan><tspan x="5" dy="10">- idTeacher</tspan></text><line x1="0" y1="59.015625" y2="59.015625" x2="103.609375"></line><text x="5" y="74.015625" fill="white" class="classText"></text></g><g id="classid-PublicChallenge-1761" class="classGroup" transform="translate(694.984375,124.6875 )"><rect x="0" y="0" width="98.796875" height="64.6875" class=" classShape"></rect><text y="15" x="0"><tspan class="title" x="5">PublicChallenge</tspan></text><line x1="0" y1="23.34375" y2="23.34375" x2="98.796875"></line><text x="5" y="33.34375" fill="white" class="classText"><tspan x="5">- correctionPDF</tspan><tspan x="5" dy="10">- uploadedAt</tspan><tspan x="5" dy="10">- deletedAt</tspan></text><line x1="0" y1="59.015625" y2="59.015625" x2="98.796875"></line><text x="5" y="74.015625" fill="white" class="classText"></text></g><g id="classid-ThymioChallenge-1762" class="classGroup" transform="translate(536.515625,274.7109375 )"><rect x="0" y="0" width="106.0625" height="34.015625" class=" classShape"></rect><text y="15" x="0"><tspan class="title" x="5">ThymioChallenge</tspan></text><line x1="0" y1="23.34375" y2="23.34375" x2="106.0625"></line><text x="5" y="33.34375" fill="white" class="classText"></text><line x1="0" y1="28.34375" y2="28.34375" x2="106.0625"></line><text x="5" y="43.34375" fill="white" class="classText"></text></g><g id="classid-Help-1763" class="classGroup" transform="translate(304.8984375,384.0625 )"><rect x="0" y="0" width="79.015625" height="64.6875" class=" classShape"></rect><text y="15" x="0"><tspan class="title" x="26.78125">Help</tspan></text><line x1="0" y1="23.34375" y2="23.34375" x2="79.015625"></line><text x="5" y="33.34375" fill="white" class="classText"><tspan x="5">- idHelp</tspan><tspan x="5" dy="10">- idChallenge</tspan><tspan x="5" dy="10">- contentHelp</tspan></text><line x1="0" y1="59.015625" y2="59.015625" x2="79.015625"></line><text x="5" y="74.015625" fill="white" class="classText"></text></g><path d="M359.8742336512262,319.0625L357.2962363760218,324.0625C354.71823910081747,329.0625,349.5622445504087,339.0625,346.9842472752043,349.8958333333333C344.40625,360.7291666666667,344.40625,372.3958333333333,344.40625,378.2291666666667L344.40625,384.0625" id="edge1869" class="relation"></path><g class="classLabel"><rect class="box" x="319.953125" y="338.296875" width="48.90625" height="15.671875"></rect><text class="label" x="344.40625" y="349.6860480755388" fill="red" text-anchor="middle">demande</text></g><path d="M171.69815104166668,197.765625L171.2269748263889,203.8671875C170.75579861111112,209.96875,169.81344618055556,222.171875,169.34226996527778,237.83072916666666C168.87109375,253.48958333333334,168.87109375,272.6041666666667,168.87109375,291.71875C168.87109375,310.8333333333333,168.87109375,329.9479166666667,169.4898099139598,343.671875C170.10852607791958,357.3958333333333,171.34595840583916,365.7291666666667,171.96467456979892,369.8958333333333L172.5833907337587,374.0625" id="edge1870" class="relation" marker-end="url(#dependencyEnd)"></path><g class="classLabel"><rect class="box" x="-2.5" y="-2.5" width="5" height="5"></rect><text class="label" x="168.87109375" y="285.99662578286194" fill="red" text-anchor="middle"></text></g><path d="M210.72703125,197.765625L216.10195312500002,203.8671875C221.47687499999998,209.96875,232.22671875,222.171875,251.96947916666667,234.56298185042988C271.7122395833333,246.95408870085978,300.4479166666667,259.53317740171957,314.8157552083333,265.82272175214945L329.18359375,272.1122661025794" id="edge1871" class="relation"></path><g class="classLabel"><rect class="box" x="247.609375" y="232.0625" width="32.25" height="15.6875"></rect><text class="label" x="263.73335590225264" y="243.46131958088768" fill="red" text-anchor="middle">dirige</text></g><g class="cardinality"><text class="type1" x="215.23780888121695" y="210.45037510245422" fill="black" font-size="6">0..*</text></g><g class="cardinality"><text class="type2" x="319.737746702474" y="262.5192491863666" fill="black" font-size="6">1</text></g><path d="M323.0546875,189.375L323.0546875,196.875C323.0546875,204.375,323.0546875,219.375,327.49440139645776,231.875C331.9341152929155,244.375,340.81354308583104,254.375,345.2532569822888,259.375L349.69297087874656,264.375" id="edge1872" class="relation" marker-end="url(#compositionEnd)"></path><g class="classLabel"><rect class="box" x="-2.5" y="-2.5" width="5" height="5"></rect><text class="label" x="323.0546875" y="231.93489868722176" fill="red" text-anchor="middle"></text></g><g class="cardinality"><text class="type1" x="318.0546875" y="201.875" fill="black" font-size="6">2..6</text></g><path d="M329.18359375,309.9346646003602L313.1490885416667,316.4559705003001C297.1145833333333,322.9772764002401,265.0455729166667,336.0198882001201,245.6634749009087,346.7078607667267C226.28137688515082,357.3958333333333,219.5861912703016,365.7291666666667,216.238598462877,369.8958333333333L212.89100565545243,374.0625" id="edge1873" class="relation" marker-end="url(#dependencyEnd)"></path><g class="classLabel"><rect class="box" x="-2.5" y="-2.5" width="5" height="5"></rect><text class="label" x="266.22694127613767" y="335.5394203370633" fill="red" text-anchor="middle"></text></g><path d="M415.7668703167575,319.0625L423.4092408889646,324.0625C431.05161146117166,329.0625,446.3363526055858,339.0625,460.24347478500476,348.5260416666667C474.1505969644238,357.9895833333333,486.6801001788476,366.9166666666667,492.9448517860595,371.3802083333333L499.20960339327144,375.84375" id="edge1874" class="relation"></path><g class="classLabel"><rect class="box" x="439.65625" y="335.296875" width="36.703125" height="15.6875"></rect><text class="label" x="458.0049078660089" y="346.6966202969521" fill="red" text-anchor="middle">réalise</text></g><g class="cardinality"><text class="type1" x="423.4896459889344" y="330.09013510083787" fill="black" font-size="6">0..*</text></g><g class="cardinality"><text class="type2" x="491.9306053403461" y="364.51828368088053" fill="black" font-size="6">0..*</text></g><path d="M171.99113805970148,54.6875L172.46657338308455,58.854166666666664C172.94200870646765,63.020833333333336,173.89287935323384,71.35416666666667,174.3683146766169,81.62239583333333C174.84375,91.890625,174.84375,104.09375,174.84375,110.1953125L174.84375,116.296875" id="edge1875" class="relation"></path><g class="classLabel"><rect class="box" x="-2.5" y="-2.5" width="5" height="5"></rect><text class="label" x="174.84375" y="85.41107670959347" fill="red" text-anchor="middle"></text></g><path d="M202.95703125,34.94247169725L236.40950520833334,42.399976414375C269.8619791666667,49.8574811315,336.7669270833333,64.77249056575,370.2194010416667,85.120620282875C403.671875,105.46875,403.671875,131.25,403.671875,157.03125C403.671875,182.8125,403.671875,208.59375,401.0822973433242,226.484375C398.4927196866485,244.375,393.31356437329697,254.375,390.72398671662125,259.375L388.1344090599455,264.375" id="edge1876" class="relation"></path><g class="classLabel"><rect class="box" x="-2.5" y="-2.5" width="5" height="5"></rect><text class="label" x="395.29278979490874" y="77.81956438722617" fill="red" text-anchor="middle"></text></g><path d="M134.78515625,40.78433978018421L118.341796875,47.26819981682018C101.8984375,53.75205985345614,69.01171875,66.71977992672807,52.568359375,79.03697329669737C36.125,91.35416666666667,36.125,103.02083333333333,36.125,108.85416666666667L36.125,114.6875" id="edge1877" class="relation" marker-end="url(#compositionEnd)"></path><g class="classLabel"><rect class="box" x="-2.5" y="-2.5" width="5" height="5"></rect><text class="label" x="69.17501630906222" y="66.65538928165748" fill="red" text-anchor="middle"></text></g><g class="cardinality"><text class="type2" x="46.125" y="102.1875" fill="black" font-size="6">0..*</text></g><path d="M125.75882812500001,197.765625L118.40644531250001,203.8671875C111.0540625,209.96875,96.34929687500001,222.171875,88.99691406250001,232.44010416666666C81.64453125,242.70833333333334,81.64453125,251.04166666666666,81.64453125,255.20833333333334L81.64453125,259.375" id="edge1878" class="relation"></path><g class="classLabel"><rect class="box" x="66.5625" y="212.65625" width="55.03125" height="15.6875"></rect><text class="label" x="94.08257584800577" y="224.052971287962" fill="red" text-anchor="middle">commente</text></g><g class="cardinality"><text class="type1" x="112.94666077032096" y="201.90064225216432" fill="black" font-size="6">1..1</text></g><g class="cardinality"><text class="type2" x="86.64453125" y="246.875" fill="black" font-size="6">0..*</text></g><path d="M468.5583964646465,209.375L466.73095538720537,213.54166666666666C464.90351430976426,217.70833333333334,461.24863215488216,226.04166666666666,452.1299785433812,235.20833333333334C443.01132493188015,244.375,428.42889986376025,254.375,421.1376873297003,259.375L413.84647479564035,264.375" id="edge1879" class="relation"></path><g class="classLabel"><rect class="box" x="-2.5" y="-2.5" width="5" height="5"></rect><text class="label" x="446.9769345229597" y="241.6555554819896" fill="red" text-anchor="middle"></text></g><path d="M498.2833017676768,209.375L498.8220223063973,213.54166666666666C499.36074284511784,217.70833333333334,500.4381839225589,226.04166666666666,500.97690446127945,239.765625C501.515625,253.48958333333334,501.515625,272.6041666666667,501.515625,291.71875C501.515625,310.8333333333333,501.515625,329.9479166666667,505.1361683101315,343.96875C508.75671162026293,357.9895833333333,515.9977982405259,366.9166666666667,519.6183415506574,371.3802083333333L523.2388848607889,375.84375" id="edge1880" class="relation"></path><g class="classLabel"><rect class="box" x="-2.5" y="-2.5" width="5" height="5"></rect><text class="label" x="501.515625" y="296.3566249720357" fill="red" text-anchor="middle"></text></g><path d="M589.546875,308.7265625L589.546875,315.44921875C589.546875,322.171875,589.546875,335.6171875,587.3327097834493,346.8033854166667C585.1185445668988,357.9895833333333,580.6902141337974,366.9166666666667,578.4760489172468,371.3802083333333L576.2618837006961,375.84375" id="edge1881" class="relation" marker-end="url(#dependencyEnd)"></path><g class="classLabel"><rect class="box" x="-2.5" y="-2.5" width="5" height="5"></rect><text class="label" x="589.546875" y="343.84215936774063" fill="red" text-anchor="middle"></text></g><path d="M744.3828125,324.0625L744.3828125,328.2291666666667C744.3828125,332.3958333333333,744.3828125,340.7291666666667,722.5872395833334,352.69321198208485C700.7916666666666,364.6572572975029,657.2005208333334,380.25201459500585,635.4049479166666,388.0493932437573L613.609375,395.8467718925088" id="edge1882" class="relation" marker-end="url(#dependencyEnd)"></path><g class="classLabel"><rect class="box" x="-2.5" y="-2.5" width="5" height="5"></rect><text class="label" x="690.7656004417997" y="368.2440882109021" fill="red" text-anchor="middle"></text></g><path d="M744.3828125,189.375L744.3828125,196.875C744.3828125,204.375,744.3828125,219.375,744.3828125,231.04166666666666C744.3828125,242.70833333333334,744.3828125,251.04166666666666,744.3828125,255.20833333333334L744.3828125,259.375" id="edge1883" class="relation" marker-end="url(#dependencyEnd)"></path><g class="classLabel"><rect class="box" x="-2.5" y="-2.5" width="5" height="5"></rect><text class="label" x="744.3828125" y="224.375" fill="red" text-anchor="middle"></text></g></svg>