<svg id="graphDiv" width="100%" xmlns="http://www.w3.org/2000/svg" xmlns:xlink="http://www.w3.org/1999/xlink" height="521.25" style="max-width: 776.266px; transform: scale(0.87);" viewBox="-22.5 -22.5 776.265625 521.25"><style>#graphDiv{font-family:"trebuchet ms",verdana,arial,sans-serif;font-size:16px;fill:#333;}#graphDiv .error-icon{fill:#552222;}#graphDiv .error-text{fill:#552222;stroke:#552222;}#graphDiv .edge-thickness-normal{stroke-width:2px;}#graphDiv .edge-thickness-thick{stroke-width:3.5px;}#graphDiv .edge-pattern-solid{stroke-dasharray:0;}#graphDiv .edge-pattern-dashed{stroke-dasharray:3;}#graphDiv .edge-pattern-dotted{stroke-dasharray:2;}#graphDiv .marker{fill:#333333;}#graphDiv .marker.cross{stroke:#333333;}#graphDiv svg{font-family:"trebuchet ms",verdana,arial,sans-serif;font-size:16px;}#graphDiv g.classGroup text{fill:#9370DB;fill:#131300;stroke:none;font-family:"trebuchet ms",verdana,arial,sans-serif;font-size:10px;}#graphDiv g.classGroup text .title{font-weight:bolder;}#graphDiv .classTitle{font-weight:bolder;}#graphDiv .node rect,#graphDiv .node circle,#graphDiv .node ellipse,#graphDiv .node polygon,#graphDiv .node path{fill:#ECECFF;stroke:#9370DB;stroke-width:1px;}#graphDiv .divider{stroke:#9370DB;stroke:1;}#graphDiv g.clickable{cursor:pointer;}#graphDiv g.classGroup rect{fill:#ECECFF;stroke:#9370DB;}#graphDiv g.classGroup line{stroke:#9370DB;stroke-width:1;}#graphDiv .classLabel .box{stroke:none;stroke-width:0;fill:#ECECFF;opacity:0.5;}#graphDiv .classLabel .label{fill:#9370DB;font-size:10px;}#graphDiv .relation{stroke:#333333;stroke-width:1;fill:none;}#graphDiv .dashed-line{stroke-dasharray:3;}#graphDiv #compositionStart,#graphDiv .composition{fill:#333333 !important;stroke:#333333 !important;stroke-width:1;}#graphDiv #compositionEnd,#graphDiv .composition{fill:#333333 !important;stroke:#333333 !important;stroke-width:1;}#graphDiv #dependencyStart,#graphDiv .dependency{fill:#333333 !important;stroke:#333333 !important;stroke-width:1;}#graphDiv #dependencyStart,#graphDiv .dependency{fill:#333333 !important;stroke:#333333 !important;stroke-width:1;}#graphDiv #extensionStart,#graphDiv .extension{fill:#333333 !important;stroke:#333333 !important;stroke-width:1;}#graphDiv #extensionEnd,#graphDiv .extension{fill:#333333 !important;stroke:#333333 !important;stroke-width:1;}#graphDiv #aggregationStart,#graphDiv .aggregation{fill:#ECECFF !important;stroke:#333333 !important;stroke-width:1;}#graphDiv #aggregationEnd,#graphDiv .aggregation{fill:#ECECFF !important;stroke:#333333 !important;stroke-width:1;}#graphDiv .edgeTerminals{font-size:11px;}#graphDiv .label div{padding:5px 24px;}#graphDiv .label{font-family:Inter,Arial,sans-serif;color:#ffffff;font-size:15px;font-weight:500;}#graphDiv li{font-family:Inter,Arial,sans-serif;color:#ffffff;font-size:13px;padding-left:0.5em;font-weight:500;text-align:left;}#graphDiv li:first-of-type{padding-top:7px;}#graphDiv ul{margin-top:8px;margin-bottom:1rem;margin-left:-50px;border-top:1px solid #5ae1a8;width:500%;list-style-type:none;}#graphDiv .node rect{fill:#51a0f4;stroke:#51a0f4;color:#ffffff;}#graphDiv .edgeLabel{color:#b9b9b9;background-color:transparent;font-size:12px;}#graphDiv .edge-thickness-normal{stroke-width:1px;!important;}#graphDiv .path{stroke:#d5d5d5 !important;}#graphDiv .edgeLabel{color:#353535;font-size:11px;font-weight:600;}#graphDiv .flowchart-link{stroke:#c0c4ce !important;}#graphDiv #extensionEnd{fill:white;}#graphDiv .cluster rect{fill:#e8f5ff;stroke:#3c60cc;stroke-width:1px;opacity:0.3;stroke-dasharray:6;}#graphDiv .cluster .nodeLabel{font-size:14px;color:#92a7cc;}#graphDiv .fa{padding:0 4px 4px 0 !important;-webkit-transform:scale(1.2);-ms-transform:scale(1.2);transform:scale(1.2);}#graphDiv rect[rx="5"]{fill:#22d097 !important;stroke:#22d097 !important;}#graphDiv rect[rx^="23"]{fill:#f47474 !important;stroke:#f47474 !important;}#graphDiv circle[rx="0"]{fill:#9B84D0;stroke:#9370DB;stroke-width:1px;}#graphDiv .node path{fill:#FF9555 !important;stroke:#FFAB61 !important;stroke-width:1px;}#graphDiv .node polygon{fill:#FF7B65 !important;stroke:#FF7B65 !important;stroke-width:1px;}#graphDiv .node polygon[points*="0,-"]{fill:#3B5DAE !important;stroke:#FFF !important;}#graphDiv .node path + .label ul{border-top:1px solid #FFAB61;}#graphDiv .node polygon + .label ul{border-top:1px solid #5e7ed0;}#graphDiv rect[class="er entityBox"]{fill:#2ea2f7 !important;stroke:#2ea2f7 !important;}#graphDiv marker{fill:#000;}#graphDiv text[class="er entityLabel"]{fill:#ffffff;font-weight:600;font-size:15px !important;font-family:Oxygen,Arial,sans-serif !important;}#graphDiv rect[class="er attributeBoxOdd"]{fill:#0d7ed1 !important;stroke:#2ea2f7 !important;}#graphDiv rect[class="er attributeBoxEven"]{fill:#74b4e3 !important;stroke:#2ea2f7 !important;}#graphDiv text[class="er relationshipLabel"]{fill:#353535;font-weight:600;font-size:11px !important;font-family:Oxygen,Arial,sans-serif !important;}#graphDiv text[class="actor"] &gt; tspan{fill:#ffffff;font-weight:600 !important;font-size:15px !important;font-family:Oxygen,Arial,sans-serif !important;}#graphDiv polygon[class="labelBox"]{fill:#b3d6ee !important;stroke:#93b4c9 !important;}#graphDiv line[class="loopLine"]{fill:#93b4c9 !important;stroke:#93b4c9 !important;}#graphDiv rect[class="actor"]{fill:#2ea2f7;stroke:#2ea2f7;}#graphDiv text[class="noteText"] &gt; tspan{fill:#ffffff;font-weight:600 !important;font-size:13px !important;font-family:Oxygen,Arial,sans-serif !important;}#graphDiv rect[class="note"]{fill:#3B5DAE;stroke:#2b4480;}#graphDiv rect[class=" classShape"]{fill:#2ea2f7 !important;stroke:#2ea2f7 !important;}#graphDiv g.classGroup line{stroke:#2283c9 !important;}#graphDiv g.classGroup text{fill:#ffffff !important;font-weight:600 !important;font-family:Oxygen,Arial,sans-serif !important;}#graphDiv g.classLabel .label{fill:#3B5DAE !important;font-weight:600 !important;font-family:Oxygen,Arial,sans-serif !important;}#graphDiv:root{--mermaid-font-family:"trebuchet ms",verdana,arial,sans-serif;}#graphDiv class{fill:apa;}</style><g></g><defs><marker id="extensionStart" class="extension" refX="0" refY="7" markerWidth="190" markerHeight="240" orient="auto"><path d="M 1,7 L18,13 V 1 Z"></path></marker></defs><defs><marker id="extensionEnd" refX="19" refY="7" markerWidth="20" markerHeight="28" orient="auto"><path d="M 1,1 V 13 L18,7 Z"></path></marker></defs><defs><marker id="compositionStart" class="extension" refX="0" refY="7" markerWidth="190" markerHeight="240" orient="auto"><path d="M 18,7 L9,13 L1,7 L9,1 Z"></path></marker></defs><defs><marker id="compositionEnd" refX="19" refY="7" markerWidth="20" markerHeight="28" orient="auto"><path d="M 18,7 L9,13 L1,7 L9,1 Z"></path></marker></defs><defs><marker id="aggregationStart" class="extension" refX="0" refY="7" markerWidth="190" markerHeight="240" orient="auto"><path d="M 18,7 L9,13 L1,7 L9,1 Z"></path></marker></defs><defs><marker id="aggregationEnd" refX="19" refY="7" markerWidth="20" markerHeight="28" orient="auto"><path d="M 18,7 L9,13 L1,7 L9,1 Z"></path></marker></defs><defs><marker id="dependencyStart" class="extension" refX="0" refY="7" markerWidth="190" markerHeight="240" orient="auto"><path d="M 5,7 L9,13 L1,7 L9,1 Z"></path></marker></defs><defs><marker id="dependencyEnd" refX="19" refY="7" markerWidth="20" markerHeight="28" orient="auto"><path d="M 18,7 L9,13 L14,7 L9,1 Z"></path></marker></defs><g id="classid-User-1214" class="classGroup" transform="translate(115.2734375,394.0625 )"><rect x="0" y="0" width="68.359375" height="84.6875" class=" classShape"></rect><text y="15" x="0"><tspan class="title" x="20.953125">User</tspan></text><line x1="0" y1="23.34375" y2="23.34375" x2="68.359375"></line><text x="5" y="33.34375" fill="white" class="classText"><tspan x="5">- id</tspan><tspan x="5" dy="10">- nickname</tspan><tspan x="5" dy="10">- password</tspan><tspan x="5" dy="10">- createdAt</tspan><tspan x="5" dy="10">- deletedAt</tspan></text><line x1="0" y1="79.015625" y2="79.015625" x2="68.359375"></line><text x="5" y="94.015625" fill="white" class="classText"></text></g><g id="classid-Comment-1215" class="classGroup" transform="translate(0,279.375 )"><rect x="0" y="0" width="104.453125" height="64.6875" class=" classShape"></rect><text y="15" x="0"><tspan class="title" x="26.109375">Comment</tspan></text><line x1="0" y1="23.34375" y2="23.34375" x2="104.453125"></line><text x="5" y="33.34375" fill="white" class="classText"><tspan x="5">- idComment</tspan><tspan x="5" dy="10">- contentComment</tspan><tspan x="5" dy="10">- createdAt</tspan></text><line x1="0" y1="59.015625" y2="59.015625" x2="104.453125"></line><text x="5" y="74.015625" fill="white" class="classText"></text></g><g id="classid-Teacher-1216" class="classGroup" transform="translate(63.85546875,136.296875 )"><rect x="0" y="0" width="105.1875" height="81.46875" class=" classShape"></rect><text y="15" x="0"><tspan class="title" x="29.578125">Teacher</tspan></text><line x1="0" y1="23.34375" y2="23.34375" x2="105.1875"></line><text x="5" y="33.34375" fill="white" class="classText"><tspan x="5">- mail</tspan><tspan x="5" dy="10">- nameTeacher</tspan><tspan x="5" dy="10">- firstnameTeacher</tspan></text><line x1="0" y1="59.015625" y2="59.015625" x2="105.1875"></line><text x="5" y="74.015625" fill="white" class="classText"><tspan x="5">+createGroup()</tspan></text></g><g id="classid-Group-1217" class="classGroup" transform="translate(279.15625,284.375 )"><rect x="0" y="0" width="89.578125" height="54.6875" class=" classShape"></rect><text y="15" x="0"><tspan class="title" x="28.09375">Group</tspan></text><line x1="0" y1="23.34375" y2="23.34375" x2="89.578125"></line><text x="5" y="33.34375" fill="white" class="classText"><tspan x="5">- idTeacher</tspan><tspan x="5" dy="10">- countSucceed</tspan></text><line x1="0" y1="49.015625" y2="49.015625" x2="89.578125"></line><text x="5" y="64.015625" fill="white" class="classText"></text></g><g id="classid-Chat-1218" class="classGroup" transform="translate(217.7421875,0 )"><rect x="0" y="0" width="72.25" height="74.6875" class=" classShape"></rect><text y="15" x="0"><tspan class="title" x="23.421875">Chat</tspan></text><line x1="0" y1="23.34375" y2="23.34375" x2="72.25"></line><text x="5" y="33.34375" fill="white" class="classText"><tspan x="5">- idMessage</tspan><tspan x="5" dy="10">- idUser</tspan><tspan x="5" dy="10">- content</tspan><tspan x="5" dy="10">- datetime</tspan></text><line x1="0" y1="69.015625" y2="69.015625" x2="72.25"></line><text x="5" y="84.015625" fill="white" class="classText"></text></g><g id="classid-Children-1219" class="classGroup" transform="translate(219.04296875,144.6875 )"><rect x="0" y="0" width="91.234375" height="64.6875" class=" classShape"></rect><text y="15" x="0"><tspan class="title" x="22.53125">Children</tspan></text><line x1="0" y1="23.34375" y2="23.34375" x2="91.234375"></line><text x="5" y="33.34375" fill="white" class="classText"><tspan x="5">- idChildren</tspan><tspan x="5" dy="10">- nameChild</tspan><tspan x="5" dy="10">- firstnameChild</tspan></text><line x1="0" y1="59.015625" y2="59.015625" x2="91.234375"></line><text x="5" y="74.015625" fill="white" class="classText"></text></g><g id="classid-Status-1220" class="classGroup" transform="translate(386.25,124.6875 )"><rect x="0" y="0" width="105.6875" height="104.6875" class=" classShape"></rect><text y="15" x="0"><tspan class="title" x="35.09375">Status</tspan></text><line x1="0" y1="23.34375" y2="23.34375" x2="105.6875"></line><text x="5" y="33.34375" fill="white" class="classText"><tspan x="5">- idGroup</tspan><tspan x="5" dy="10">- idChallenge</tspan><tspan x="5" dy="10">- statusInt</tspan><tspan x="5" dy="10">- countHelp</tspan><tspan x="5" dy="10">- needHelpBoolean</tspan><tspan x="5" dy="10">- startedAt</tspan><tspan x="5" dy="10">- finishedAt</tspan></text><line x1="0" y1="99.015625" y2="99.015625" x2="105.6875"></line><text x="5" y="114.015625" fill="white" class="classText"></text></g><g id="classid-Challenge-1221" class="classGroup" transform="translate(448.64453125,395.84375 )"><rect x="0" y="0" width="114.9375" height="81.125" class=" classShape"></rect><text y="15" x="0"><tspan x="32.453125">«abstract»</tspan><tspan class="title" dy="10" x="30.0078125">Challenge</tspan></text><line x1="0" y1="31.5625" y2="31.5625" x2="114.9375"></line><text x="5" y="41.5625" fill="white" class="classText"><tspan x="5">- id</tspan><tspan x="5" dy="10">- name</tspan><tspan x="5" dy="10">- description</tspan><tspan x="5" dy="10">- difficulty</tspan></text><line x1="0" y1="77.234375" y2="77.234375" x2="114.9375"></line><text x="5" y="92.234375" fill="white" class="classText"></text></g><g id="classid-PrivateChallenge-1222" class="classGroup" transform="translate(630.15625,279.375 )"><rect x="0" y="0" width="103.609375" height="64.6875" class=" classShape"></rect><text y="15" x="0"><tspan class="title" x="5">PrivateChallenge</tspan></text><line x1="0" y1="23.34375" y2="23.34375" x2="103.609375"></line><text x="5" y="33.34375" fill="white" class="classText"><tspan x="5">- createdAt</tspan><tspan x="5" dy="10">- deletedAt</tspan><tspan x="5" dy="10">- idTeacher</tspan></text><line x1="0" y1="59.015625" y2="59.015625" x2="103.609375"></line><text x="5" y="74.015625" fill="white" class="classText"></text></g><g id="classid-PublicChallenge-1223" class="classGroup" transform="translate(632.5625,144.6875 )"><rect x="0" y="0" width="98.796875" height="64.6875" class=" classShape"></rect><text y="15" x="0"><tspan class="title" x="5">PublicChallenge</tspan></text><line x1="0" y1="23.34375" y2="23.34375" x2="98.796875"></line><text x="5" y="33.34375" fill="white" class="classText"><tspan x="5">- correctionPDF</tspan><tspan x="5" dy="10">- uploadedAt</tspan><tspan x="5" dy="10">- deletedAt</tspan></text><line x1="0" y1="59.015625" y2="59.015625" x2="98.796875"></line><text x="5" y="74.015625" fill="white" class="classText"></text></g><g id="classid-ThymioChallenge-1224" class="classGroup" transform="translate(474.09375,294.7109375 )"><rect x="0" y="0" width="106.0625" height="34.015625" class=" classShape"></rect><text y="15" x="0"><tspan class="title" x="5">ThymioChallenge</tspan></text><line x1="0" y1="23.34375" y2="23.34375" x2="106.0625"></line><text x="5" y="33.34375" fill="white" class="classText"></text><line x1="0" y1="28.34375" y2="28.34375" x2="106.0625"></line><text x="5" y="43.34375" fill="white" class="classText"></text></g><g id="classid-Help-1225" class="classGroup" transform="translate(254.87109375,404.0625 )"><rect x="0" y="0" width="79.015625" height="64.6875" class=" classShape"></rect><text y="15" x="0"><tspan class="title" x="26.78125">Help</tspan></text><line x1="0" y1="23.34375" y2="23.34375" x2="79.015625"></line><text x="5" y="33.34375" fill="white" class="classText"><tspan x="5">- idHelp</tspan><tspan x="5" dy="10">- idChallenge</tspan><tspan x="5" dy="10">- contentHelp</tspan></text><line x1="0" y1="59.015625" y2="59.015625" x2="79.015625"></line><text x="5" y="74.015625" fill="white" class="classText"></text></g><path d="M309.8468899012262,339.0625L307.2688926260218,344.0625C304.69089535081747,349.0625,299.5349008004087,359.0625,296.9569035252044,369.8958333333333C294.37890625,380.7291666666667,294.37890625,392.3958333333333,294.37890625,398.2291666666667L294.37890625,404.0625" id="edge1333" class="relation"></path><g class="classLabel"><rect class="box" x="269.921875" y="358.296875" width="48.921875" height="15.671875"></rect><text class="label" x="294.37890625000006" y="369.6860480755388" fill="red" text-anchor="middle">demande</text></g><path d="M128.564609375,217.765625L130.37936197916667,223.8671875C132.19411458333335,229.96875,135.8236197916667,242.171875,137.63837239583333,257.8307291666667C139.453125,273.4895833333333,139.453125,292.6041666666667,139.453125,311.71875C139.453125,330.8333333333333,139.453125,349.9479166666667,140.0718411639598,363.671875C140.69055732791958,377.3958333333333,141.92798965583913,385.7291666666667,142.54670581979892,389.8958333333333L143.1654219837587,394.0625" id="edge1334" class="relation" marker-end="url(#dependencyEnd)"></path><g class="classLabel"><rect class="box" x="-2.5" y="-2.5" width="5" height="5"></rect><text class="label" x="139.453125" y="305.25864987313247" fill="red" text-anchor="middle"></text></g><path d="M150.21143229166665,217.765625L155.26864149305553,223.8671875C160.32585069444443,229.96875,170.44026909722223,242.171875,191.9310720486111,254.84544241037375C213.421875,267.5190098207475,246.2890625,280.66301964149505,262.72265625,287.2350245518688L279.15625,293.80702946224255" id="edge1335" class="relation"></path><g class="classLabel"><rect class="box" x="191.65625" y="253.859375" width="32.25" height="15.6875"></rect><text class="label" x="207.78048194227017" y="265.2629443830371" fill="red" text-anchor="middle">dirige</text></g><g class="cardinality"><text class="type1" x="154.3385759789367" y="230.5803308095232" fill="black" font-size="6">0..*</text></g><g class="cardinality"><text class="type2" x="269.40654699836415" y="284.5229952432248" fill="black" font-size="6">1</text></g><path d="M264.66015625,209.375L264.66015625,216.875C264.66015625,224.375,264.66015625,239.375,269.82943417915527,251.875C274.9987121083106,264.375,285.33726796662125,274.375,290.5065458957765,279.375L295.67582382493185,284.375" id="edge1336" class="relation" marker-end="url(#compositionEnd)"></path><g class="classLabel"><rect class="box" x="-2.5" y="-2.5" width="5" height="5"></rect><text class="label" x="264.66015625" y="253.4502846743599" fill="red" text-anchor="middle"></text></g><g class="cardinality"><text class="type1" x="259.66015625" y="221.875" fill="black" font-size="6">2..6</text></g><path d="M279.15625,330.9732725928312L264.3893229166667,337.32147716069267C249.62239583333334,343.66968172855417,220.08854166666666,356.36609086427706,202.778594475058,366.8809620988052C185.46864728344931,377.3958333333333,180.3826070668987,385.7291666666667,177.83958695862336,389.8958333333333L175.29656685034803,394.0625" id="edge1337" class="relation" marker-end="url(#dependencyEnd)"></path><g class="classLabel"><rect class="box" x="-2.5" y="-2.5" width="5" height="5"></rect><text class="label" x="221.40177406515335" y="355.80154091670227" fill="red" text-anchor="middle"></text></g><path d="M359.82932774182564,339.0625L366.39097624318805,344.0625C372.9526247445504,349.0625,386.07592174727523,359.0625,400.8784556653043,369.25332442759714C415.6809895833333,379.44414885519427,432.1627604166667,389.82579771038854,440.4036458333333,395.0166221379856L448.64453125,400.20744656558276" id="edge1338" class="relation"></path><g class="classLabel"><rect class="box" x="384.625" y="360.046875" width="36.71875" height="15.6875"></rect><text class="label" x="402.9811585645423" y="371.4446937304607" fill="red" text-anchor="middle">réalise</text></g><g class="cardinality"><text class="type1" x="366.74128548202907" y="350.61563118585786" fill="black" font-size="6">0..*</text></g><g class="cardinality"><text class="type2" x="440.7326922821168" y="389.3146597712732" fill="black" font-size="6">0..*</text></g><path d="M217.7421875,53.73293104551011L200.86002604166666,61.392025871258426C183.97786458333334,69.05112069700674,150.21354166666666,84.36931034850336,133.33138020833334,98.12996767425169C116.44921875,111.890625,116.44921875,124.09375,116.44921875,130.1953125L116.44921875,136.296875" id="edge1339" class="relation"></path><g class="classLabel"><rect class="box" x="-2.5" y="-2.5" width="5" height="5"></rect><text class="label" x="150.42629729677168" y="84.27278742697416" fill="red" text-anchor="middle"></text></g><path d="M289.9921875,61.981799655997605L299.2063802083333,68.26608304666468C308.4205729166667,74.55036643733173,326.8489583333333,87.11893321866587,336.0631510416667,106.29384160933294C345.27734375,125.46875,345.27734375,151.25,345.27734375,177.03125C345.27734375,202.8125,345.27734375,228.59375,343.4173301260218,246.484375C341.55731650204353,264.375,337.8372892540872,274.375,335.977275630109,279.375L334.1172620061308,284.375" id="edge1340" class="relation"></path><g class="classLabel"><rect class="box" x="-2.5" y="-2.5" width="5" height="5"></rect><text class="label" x="345.27734375" y="159.57596723456112" fill="red" text-anchor="middle"></text></g><path d="M82.62528645833333,217.765625L77.55883246527777,223.8671875C72.49237847222223,229.96875,62.359470486111114,242.171875,57.29301649305555,252.44010416666666C52.2265625,262.7083333333333,52.2265625,271.0416666666667,52.2265625,275.2083333333333L52.2265625,279.375" id="edge1341" class="relation"></path><g class="classLabel"><rect class="box" x="31.921875" y="234.296875" width="55.03125" height="15.671875"></rect><text class="label" x="59.440543780725505" y="245.68715684214067" fill="red" text-anchor="middle">commente</text></g><g class="cardinality"><text class="type1" x="70.7931680230359" y="224.1883170627642" fill="black" font-size="6">1..1</text></g><g class="cardinality"><text class="type2" x="57.2265625" y="266.875" fill="black" font-size="6">0..*</text></g><path d="M409.3688446969697,229.375L407.0026830808081,233.54166666666666C404.6365214646465,237.70833333333334,399.90419823232327,246.04166666666666,391.32754615294635,255.20833333333334C382.7508940735695,264.375,370.329913147139,274.375,364.1194226839237,279.375L357.90893222070844,284.375" id="edge1342" class="relation"></path><g class="classLabel"><rect class="box" x="-2.5" y="-2.5" width="5" height="5"></rect><text class="label" x="387.73748268283856" y="260.3603504012246" fill="red" text-anchor="middle"></text></g><path d="M439.09375,229.375L439.09375,233.54166666666666C439.09375,237.70833333333334,439.09375,246.04166666666666,439.09375,259.765625C439.09375,273.4895833333333,439.09375,292.6041666666667,439.09375,311.71875C439.09375,330.8333333333333,439.09375,349.9479166666667,443.53580245794666,363.96875C447.97785491589326,377.9895833333333,456.8619598317866,386.9166666666667,461.30401228973324,391.3802083333333L465.74606474767984,395.84375" id="edge1343" class="relation"></path><g class="classLabel"><rect class="box" x="-2.5" y="-2.5" width="5" height="5"></rect><text class="label" x="439.09375" y="318.1104229868737" fill="red" text-anchor="middle"></text></g><path d="M527.125,328.7265625L527.125,335.44921875C527.125,342.171875,527.125,355.6171875,525.7323439312645,366.8033854166667C524.339687862529,377.9895833333333,521.554375725058,386.9166666666667,520.1617196563225,391.3802083333333L518.769063587587,395.84375" id="edge1344" class="relation" marker-end="url(#dependencyEnd)"></path><g class="classLabel"><rect class="box" x="-2.5" y="-2.5" width="5" height="5"></rect><text class="label" x="527.125" y="362.9217995593572" fill="red" text-anchor="middle"></text></g><path d="M681.9609375,344.0625L681.9609375,348.2291666666667C681.9609375,352.3958333333333,681.9609375,360.7291666666667,662.2311197916666,372.4516912823674C642.5013020833334,384.1742158980681,603.0416666666666,399.28593179613625,583.3118489583334,406.8417897451704L563.58203125,414.3976476942044" id="edge1345" class="relation" marker-end="url(#dependencyEnd)"></path><g class="classLabel"><rect class="box" x="-2.5" y="-2.5" width="5" height="5"></rect><text class="label" x="634.4447416805319" y="387.2596081131046" fill="red" text-anchor="middle"></text></g><path d="M681.9609375,209.375L681.9609375,216.875C681.9609375,224.375,681.9609375,239.375,681.9609375,251.04166666666666C681.9609375,262.7083333333333,681.9609375,271.0416666666667,681.9609375,275.2083333333333L681.9609375,279.375" id="edge1346" class="relation" marker-end="url(#dependencyEnd)"></path><g class="classLabel"><rect class="box" x="-2.5" y="-2.5" width="5" height="5"></rect><text class="label" x="681.9609375" y="244.375" fill="red" text-anchor="middle"></text></g></svg>