<svg id="graphDiv" width="100%" xmlns="http://www.w3.org/2000/svg" xmlns:xlink="http://www.w3.org/1999/xlink" height="521.25" style="max-width: 764.355px; transform: scale(1);" viewBox="-22.5 -22.5 764.35546875 521.25"><style>#graphDiv{font-family:"trebuchet ms",verdana,arial,sans-serif;font-size:16px;fill:#333;}#graphDiv .error-icon{fill:#552222;}#graphDiv .error-text{fill:#552222;stroke:#552222;}#graphDiv .edge-thickness-normal{stroke-width:2px;}#graphDiv .edge-thickness-thick{stroke-width:3.5px;}#graphDiv .edge-pattern-solid{stroke-dasharray:0;}#graphDiv .edge-pattern-dashed{stroke-dasharray:3;}#graphDiv .edge-pattern-dotted{stroke-dasharray:2;}#graphDiv .marker{fill:#333333;}#graphDiv .marker.cross{stroke:#333333;}#graphDiv svg{font-family:"trebuchet ms",verdana,arial,sans-serif;font-size:16px;}#graphDiv g.classGroup text{fill:#9370DB;fill:#131300;stroke:none;font-family:"trebuchet ms",verdana,arial,sans-serif;font-size:10px;}#graphDiv g.classGroup text .title{font-weight:bolder;}#graphDiv .classTitle{font-weight:bolder;}#graphDiv .node rect,#graphDiv .node circle,#graphDiv .node ellipse,#graphDiv .node polygon,#graphDiv .node path{fill:#ECECFF;stroke:#9370DB;stroke-width:1px;}#graphDiv .divider{stroke:#9370DB;stroke:1;}#graphDiv g.clickable{cursor:pointer;}#graphDiv g.classGroup rect{fill:#ECECFF;stroke:#9370DB;}#graphDiv g.classGroup line{stroke:#9370DB;stroke-width:1;}#graphDiv .classLabel .box{stroke:none;stroke-width:0;fill:#ECECFF;opacity:0.5;}#graphDiv .classLabel .label{fill:#9370DB;font-size:10px;}#graphDiv .relation{stroke:#333333;stroke-width:1;fill:none;}#graphDiv .dashed-line{stroke-dasharray:3;}#graphDiv #compositionStart,#graphDiv .composition{fill:#333333 !important;stroke:#333333 !important;stroke-width:1;}#graphDiv #compositionEnd,#graphDiv .composition{fill:#333333 !important;stroke:#333333 !important;stroke-width:1;}#graphDiv #dependencyStart,#graphDiv .dependency{fill:#333333 !important;stroke:#333333 !important;stroke-width:1;}#graphDiv #dependencyStart,#graphDiv .dependency{fill:#333333 !important;stroke:#333333 !important;stroke-width:1;}#graphDiv #extensionStart,#graphDiv .extension{fill:#333333 !important;stroke:#333333 !important;stroke-width:1;}#graphDiv #extensionEnd,#graphDiv .extension{fill:#333333 !important;stroke:#333333 !important;stroke-width:1;}#graphDiv #aggregationStart,#graphDiv .aggregation{fill:#ECECFF !important;stroke:#333333 !important;stroke-width:1;}#graphDiv #aggregationEnd,#graphDiv .aggregation{fill:#ECECFF !important;stroke:#333333 !important;stroke-width:1;}#graphDiv .edgeTerminals{font-size:11px;}#graphDiv .label div{padding:5px 24px;}#graphDiv .label{font-family:Inter,Arial,sans-serif;color:#ffffff;font-size:15px;font-weight:500;}#graphDiv li{font-family:Inter,Arial,sans-serif;color:#ffffff;font-size:13px;padding-left:0.5em;font-weight:500;text-align:left;}#graphDiv li:first-of-type{padding-top:7px;}#graphDiv ul{margin-top:8px;margin-bottom:1rem;margin-left:-50px;border-top:1px solid #5ae1a8;width:500%;list-style-type:none;}#graphDiv .node rect{fill:#51a0f4;stroke:#51a0f4;color:#ffffff;}#graphDiv .edgeLabel{color:#b9b9b9;background-color:transparent;font-size:12px;}#graphDiv .edge-thickness-normal{stroke-width:1px;!important;}#graphDiv .path{stroke:#d5d5d5 !important;}#graphDiv .edgeLabel{color:#353535;font-size:11px;font-weight:600;}#graphDiv .flowchart-link{stroke:#c0c4ce !important;}#graphDiv #extensionEnd{fill:white;}#graphDiv .cluster rect{fill:#e8f5ff;stroke:#3c60cc;stroke-width:1px;opacity:0.3;stroke-dasharray:6;}#graphDiv .cluster .nodeLabel{font-size:14px;color:#92a7cc;}#graphDiv .fa{padding:0 4px 4px 0 !important;-webkit-transform:scale(1.2);-ms-transform:scale(1.2);transform:scale(1.2);}#graphDiv rect[rx="5"]{fill:#22d097 !important;stroke:#22d097 !important;}#graphDiv rect[rx^="23"]{fill:#f47474 !important;stroke:#f47474 !important;}#graphDiv circle[rx="0"]{fill:#9B84D0;stroke:#9370DB;stroke-width:1px;}#graphDiv .node path{fill:#FF9555 !important;stroke:#FFAB61 !important;stroke-width:1px;}#graphDiv .node polygon{fill:#FF7B65 !important;stroke:#FF7B65 !important;stroke-width:1px;}#graphDiv .node polygon[points*="0,-"]{fill:#3B5DAE !important;stroke:#FFF !important;}#graphDiv .node path + .label ul{border-top:1px solid #FFAB61;}#graphDiv .node polygon + .label ul{border-top:1px solid #5e7ed0;}#graphDiv rect[class="er entityBox"]{fill:#2ea2f7 !important;stroke:#2ea2f7 !important;}#graphDiv marker{fill:#000;}#graphDiv text[class="er entityLabel"]{fill:#ffffff;font-weight:600;font-size:15px !important;font-family:Oxygen,Arial,sans-serif !important;}#graphDiv rect[class="er attributeBoxOdd"]{fill:#0d7ed1 !important;stroke:#2ea2f7 !important;}#graphDiv rect[class="er attributeBoxEven"]{fill:#74b4e3 !important;stroke:#2ea2f7 !important;}#graphDiv text[class="er relationshipLabel"]{fill:#353535;font-weight:600;font-size:11px !important;font-family:Oxygen,Arial,sans-serif !important;}#graphDiv text[class="actor"] &gt; tspan{fill:#ffffff;font-weight:600 !important;font-size:15px !important;font-family:Oxygen,Arial,sans-serif !important;}#graphDiv polygon[class="labelBox"]{fill:#b3d6ee !important;stroke:#93b4c9 !important;}#graphDiv line[class="loopLine"]{fill:#93b4c9 !important;stroke:#93b4c9 !important;}#graphDiv rect[class="actor"]{fill:#2ea2f7;stroke:#2ea2f7;}#graphDiv text[class="noteText"] &gt; tspan{fill:#ffffff;font-weight:600 !important;font-size:13px !important;font-family:Oxygen,Arial,sans-serif !important;}#graphDiv rect[class="note"]{fill:#3B5DAE;stroke:#2b4480;}#graphDiv rect[class=" classShape"]{fill:#2ea2f7 !important;stroke:#2ea2f7 !important;}#graphDiv g.classGroup line{stroke:#2283c9 !important;}#graphDiv g.classGroup text{fill:#ffffff !important;font-weight:600 !important;font-family:Oxygen,Arial,sans-serif !important;}#graphDiv g.classLabel .label{fill:#3B5DAE !important;font-weight:600 !important;font-family:Oxygen,Arial,sans-serif !important;}#graphDiv:root{--mermaid-font-family:"trebuchet ms",verdana,arial,sans-serif;}#graphDiv class{fill:apa;}</style><g></g><defs><marker id="extensionStart" class="extension" refX="0" refY="7" markerWidth="190" markerHeight="240" orient="auto"><path d="M 1,7 L18,13 V 1 Z"></path></marker></defs><defs><marker id="extensionEnd" refX="19" refY="7" markerWidth="20" markerHeight="28" orient="auto"><path d="M 1,1 V 13 L18,7 Z"></path></marker></defs><defs><marker id="compositionStart" class="extension" refX="0" refY="7" markerWidth="190" markerHeight="240" orient="auto"><path d="M 18,7 L9,13 L1,7 L9,1 Z"></path></marker></defs><defs><marker id="compositionEnd" refX="19" refY="7" markerWidth="20" markerHeight="28" orient="auto"><path d="M 18,7 L9,13 L1,7 L9,1 Z"></path></marker></defs><defs><marker id="aggregationStart" class="extension" refX="0" refY="7" markerWidth="190" markerHeight="240" orient="auto"><path d="M 18,7 L9,13 L1,7 L9,1 Z"></path></marker></defs><defs><marker id="aggregationEnd" refX="19" refY="7" markerWidth="20" markerHeight="28" orient="auto"><path d="M 18,7 L9,13 L1,7 L9,1 Z"></path></marker></defs><defs><marker id="dependencyStart" class="extension" refX="0" refY="7" markerWidth="190" markerHeight="240" orient="auto"><path d="M 5,7 L9,13 L1,7 L9,1 Z"></path></marker></defs><defs><marker id="dependencyEnd" refX="19" refY="7" markerWidth="20" markerHeight="28" orient="auto"><path d="M 18,7 L9,13 L14,7 L9,1 Z"></path></marker></defs><g id="classid-Users-0" class="classGroup" transform="translate(115.2734375,394.0625 )"><rect x="0" y="0" width="68.359375" height="84.6875" class=" classShape"></rect><text y="15" x="0"><tspan class="title" x="18.1640625">Users</tspan></text><line x1="0" y1="23.34375" y2="23.34375" x2="68.359375"></line><text x="5" y="33.34375" fill="white" class="classText"><tspan x="5">- id</tspan><tspan x="5" dy="10">- nickname</tspan><tspan x="5" dy="10">- password</tspan><tspan x="5" dy="10">- createdAt</tspan><tspan x="5" dy="10">- deletedAt</tspan></text><line x1="0" y1="79.015625" y2="79.015625" x2="68.359375"></line><text x="5" y="94.015625" fill="white" class="classText"></text></g><g id="classid-Comments-1" class="classGroup" transform="translate(0,279.375 )"><rect x="0" y="0" width="104.453125" height="64.6875" class=" classShape"></rect><text y="15" x="0"><tspan class="title" x="23">Comments</tspan></text><line x1="0" y1="23.34375" y2="23.34375" x2="104.453125"></line><text x="5" y="33.34375" fill="white" class="classText"><tspan x="5">- idComment</tspan><tspan x="5" dy="10">- contentComment</tspan><tspan x="5" dy="10">- createdAt</tspan></text><line x1="0" y1="59.015625" y2="59.015625" x2="104.453125"></line><text x="5" y="74.015625" fill="white" class="classText"></text></g><g id="classid-Teachers-2" class="classGroup" transform="translate(57.296875,136.296875 )"><rect x="0" y="0" width="105.1875" height="81.46875" class=" classShape"></rect><text y="15" x="0"><tspan class="title" x="26.7890625">Teachers</tspan></text><line x1="0" y1="23.34375" y2="23.34375" x2="105.1875"></line><text x="5" y="33.34375" fill="white" class="classText"><tspan x="5">- mail</tspan><tspan x="5" dy="10">- nameTeacher</tspan><tspan x="5" dy="10">- firstnameTeacher</tspan></text><line x1="0" y1="59.015625" y2="59.015625" x2="105.1875"></line><text x="5" y="74.015625" fill="white" class="classText"><tspan x="5">+createGroup()</tspan></text></g><g id="classid-Group-3" class="classGroup" transform="translate(284.5078125,289.375 )"><rect x="0" y="0" width="68.171875" height="44.6875" class=" classShape"></rect><text y="15" x="0"><tspan class="title" x="17.390625">Group</tspan></text><line x1="0" y1="23.34375" y2="23.34375" x2="68.171875"></line><text x="5" y="33.34375" fill="white" class="classText"><tspan x="5">- idTeacher</tspan></text><line x1="0" y1="39.015625" y2="39.015625" x2="68.171875"></line><text x="5" y="54.015625" fill="white" class="classText"></text></g><g id="classid-Chat-4" class="classGroup" transform="translate(217.7421875,0 )"><rect x="0" y="0" width="72.25" height="74.6875" class=" classShape"></rect><text y="15" x="0"><tspan class="title" x="23.421875">Chat</tspan></text><line x1="0" y1="23.34375" y2="23.34375" x2="72.25"></line><text x="5" y="33.34375" fill="white" class="classText"><tspan x="5">- idMessage</tspan><tspan x="5" dy="10">- idUser</tspan><tspan x="5" dy="10">- content</tspan><tspan x="5" dy="10">- datetime</tspan></text><line x1="0" y1="69.015625" y2="69.015625" x2="72.25"></line><text x="5" y="84.015625" fill="white" class="classText"></text></g><g id="classid-Children-5" class="classGroup" transform="translate(212.484375,144.6875 )"><rect x="0" y="0" width="91.234375" height="64.6875" class=" classShape"></rect><text y="15" x="0"><tspan class="title" x="22.53125">Children</tspan></text><line x1="0" y1="23.34375" y2="23.34375" x2="91.234375"></line><text x="5" y="33.34375" fill="white" class="classText"><tspan x="5">- idChildren</tspan><tspan x="5" dy="10">- nameChild</tspan><tspan x="5" dy="10">- firstnameChild</tspan></text><line x1="0" y1="59.015625" y2="59.015625" x2="91.234375"></line><text x="5" y="74.015625" fill="white" class="classText"></text></g><g id="classid-Status-6" class="classGroup" transform="translate(374.33984375,124.6875 )"><rect x="0" y="0" width="105.6875" height="104.6875" class=" classShape"></rect><text y="15" x="0"><tspan class="title" x="35.09375">Status</tspan></text><line x1="0" y1="23.34375" y2="23.34375" x2="105.6875"></line><text x="5" y="33.34375" fill="white" class="classText"><tspan x="5">- idGroup</tspan><tspan x="5" dy="10">- idChallenge</tspan><tspan x="5" dy="10">- statusInt</tspan><tspan x="5" dy="10">- countHelp</tspan><tspan x="5" dy="10">- needHelpBoolean</tspan><tspan x="5" dy="10">- startedAt</tspan><tspan x="5" dy="10">- finishedAt</tspan></text><line x1="0" y1="99.015625" y2="99.015625" x2="105.6875"></line><text x="5" y="114.015625" fill="white" class="classText"></text></g><g id="classid-Challenge-7" class="classGroup" transform="translate(443.29296875,395.84375 )"><rect x="0" y="0" width="114.9375" height="81.125" class=" classShape"></rect><text y="15" x="0"><tspan x="32.453125">«abstract»</tspan><tspan class="title" dy="10" x="30.0078125">Challenge</tspan></text><line x1="0" y1="31.5625" y2="31.5625" x2="114.9375"></line><text x="5" y="41.5625" fill="white" class="classText"><tspan x="5">- id</tspan><tspan x="5" dy="10">- name</tspan><tspan x="5" dy="10">- description</tspan><tspan x="5" dy="10">- difficulty</tspan></text><line x1="0" y1="77.234375" y2="77.234375" x2="114.9375"></line><text x="5" y="92.234375" fill="white" class="classText"></text></g><g id="classid-PrivateChallenge-8" class="classGroup" transform="translate(618.24609375,279.375 )"><rect x="0" y="0" width="103.609375" height="64.6875" class=" classShape"></rect><text y="15" x="0"><tspan class="title" x="5">PrivateChallenge</tspan></text><line x1="0" y1="23.34375" y2="23.34375" x2="103.609375"></line><text x="5" y="33.34375" fill="white" class="classText"><tspan x="5">- createdAt</tspan><tspan x="5" dy="10">- deletedAt</tspan><tspan x="5" dy="10">- idTeacher</tspan></text><line x1="0" y1="59.015625" y2="59.015625" x2="103.609375"></line><text x="5" y="74.015625" fill="white" class="classText"></text></g><g id="classid-PublicChallenge-9" class="classGroup" transform="translate(620.65234375,144.6875 )"><rect x="0" y="0" width="98.796875" height="64.6875" class=" classShape"></rect><text y="15" x="0"><tspan class="title" x="5">PublicChallenge</tspan></text><line x1="0" y1="23.34375" y2="23.34375" x2="98.796875"></line><text x="5" y="33.34375" fill="white" class="classText"><tspan x="5">- correctionPDF</tspan><tspan x="5" dy="10">- uploadedAt</tspan><tspan x="5" dy="10">- deletedAt</tspan></text><line x1="0" y1="59.015625" y2="59.015625" x2="98.796875"></line><text x="5" y="74.015625" fill="white" class="classText"></text></g><g id="classid-ThymioChallenge-10" class="classGroup" transform="translate(462.18359375,294.7109375 )"><rect x="0" y="0" width="106.0625" height="34.015625" class=" classShape"></rect><text y="15" x="0"><tspan class="title" x="5">ThymioChallenge</tspan></text><line x1="0" y1="23.34375" y2="23.34375" x2="106.0625"></line><text x="5" y="33.34375" fill="white" class="classText"></text><line x1="0" y1="28.34375" y2="28.34375" x2="106.0625"></line><text x="5" y="43.34375" fill="white" class="classText"></text></g><g id="classid-Help-11" class="classGroup" transform="translate(339.9921875,5 )"><rect x="0" y="0" width="79.015625" height="64.6875" class=" classShape"></rect><text y="15" x="0"><tspan class="title" x="26.78125">Help</tspan></text><line x1="0" y1="23.34375" y2="23.34375" x2="79.015625"></line><text x="5" y="33.34375" fill="white" class="classText"><tspan x="5">- idHelp</tspan><tspan x="5" dy="10">- idChallenge</tspan><tspan x="5" dy="10">- contentHelp</tspan></text><line x1="0" y1="59.015625" y2="59.015625" x2="79.015625"></line><text x="5" y="74.015625" fill="white" class="classText"></text></g><path d="M125.46020833333333,217.765625L127.7923611111111,223.8671875C130.12451388888888,229.96875,134.78881944444444,242.171875,137.1209722222222,257.8307291666667C139.453125,273.4895833333333,139.453125,292.6041666666667,139.453125,311.71875C139.453125,330.8333333333333,139.453125,349.9479166666667,140.0718411639598,363.671875C140.69055732791958,377.3958333333333,141.92798965583913,385.7291666666667,142.54670581979892,389.8958333333333L143.1654219837587,394.0625" id="edge0" class="relation" marker-end="url(#dependencyEnd)"></path><g class="classLabel"><rect class="box" x="-2.5" y="-2.5" width="5" height="5"></rect><text class="label" x="139.453125" y="304.75958559523224" fill="red" text-anchor="middle"></text></g><path d="M143.65283854166665,217.765625L148.71004774305553,223.8671875C153.76725694444443,229.96875,163.88167534722223,242.171875,187.35750434027776,255.57779329711124C210.83333333333334,268.9837115942225,247.67057291666666,283.5924231884449,266.0891927083333,290.8967789855562L284.5078125,298.2011347826674" id="edge1" class="relation"></path><g class="classLabel"><rect class="box" x="191.03125" y="256.125" width="32.234375" height="15.6875"></rect><text class="label" x="207.15162159737326" y="267.523638430976" fill="red" text-anchor="middle">dirige</text></g><g class="cardinality"><text class="type1" x="147.7799822289367" y="230.5803308095232" fill="black" font-size="6">0..*</text></g><g class="cardinality"><text class="type2" x="274.7313998462334" y="288.94523095736366" fill="black" font-size="6">1</text></g><path d="M258.1015625,209.375L258.1015625,216.875C258.1015625,224.375,258.1015625,239.375,264.2551728542234,252.70833333333334C270.4087832084469,266.0416666666667,282.7160039168937,277.7083333333333,288.8696142711172,283.5416666666667L295.0232246253406,289.375" id="edge2" class="relation" marker-end="url(#compositionEnd)"></path><g class="classLabel"><rect class="box" x="-2.5" y="-2.5" width="5" height="5"></rect><text class="label" x="260.233224742775" y="256.39571559627643" fill="red" text-anchor="middle"></text></g><g class="cardinality"><text class="type1" x="253.1015625" y="221.875" fill="black" font-size="6">2..6</text></g><path d="M284.5078125,326.2406631816467L267.755859375,333.3776359847056C251.00390625,340.5146087877645,217.5,354.7885543938822,198.61081756332172,366.09219386360775C179.72163512664346,377.3958333333333,175.4471765032869,385.7291666666667,173.30994719160867,389.8958333333333L171.1727178799304,394.0625" id="edge3" class="relation" marker-end="url(#dependencyEnd)"></path><g class="classLabel"><rect class="box" x="-2.5" y="-2.5" width="5" height="5"></rect><text class="label" x="221.32753967258014" y="353.1578760877768" fill="red" text-anchor="middle"></text></g><path d="M343.54934434604905,334.0625L350.06455778837426,339.8958333333333C356.5797712306994,345.7291666666667,369.6101981153497,357.3958333333333,386.23413551600817,368.99239961225567C402.8580729166667,380.5889658911781,423.0755208333333,392.11543178235615,433.1842447916667,397.87866472794514L443.29296875,403.6418976735342" id="edge4" class="relation"></path><g class="classLabel"><rect class="box" x="371.828125" y="361.96875" width="36.703125" height="15.671875"></rect><text class="label" x="390.175534649479" y="373.3583379032712" fill="red" text-anchor="middle">réalise</text></g><g class="cardinality"><text class="type1" x="349.52684485719755" y="346.12564584340333" fill="black" font-size="6">0..*</text></g><g class="cardinality"><text class="type2" x="434.9102593216149" y="393.10718445298266" fill="black" font-size="6">0..*</text></g><path d="M217.7421875,52.98635133485268L199.76692708333334,60.76987611237723C181.79166666666666,68.5534008899018,145.84114583333334,84.12045044495089,127.86588541666667,98.00553772247544C109.890625,111.890625,109.890625,124.09375,109.890625,130.1953125L109.890625,136.296875" id="edge5" class="relation"></path><g class="classLabel"><rect class="box" x="-2.5" y="-2.5" width="5" height="5"></rect><text class="label" x="147.01887594927643" y="83.6104777755046" fill="red" text-anchor="middle"></text></g><path d="M289.9921875,63.88619544701224L298.11328125,69.85307953917687C306.234375,75.8199636313415,322.4765625,87.75373181567075,330.59765625,106.61124090783538C338.71875,125.46875,338.71875,151.25,338.71875,177.03125C338.71875,202.8125,338.71875,228.59375,336.671520208901,247.31770833333334C334.624290417802,266.0416666666667,330.529830835604,277.7083333333333,328.482601044505,283.5416666666667L326.435371253406,289.375" id="edge6" class="relation"></path><g class="classLabel"><rect class="box" x="-2.5" y="-2.5" width="5" height="5"></rect><text class="label" x="338.71875" y="165.3452079789458" fill="red" text-anchor="middle"></text></g><path d="M79.52088541666666,217.765625L74.97183159722222,223.8671875C70.42277777777777,229.96875,61.324670138888884,242.171875,56.775616319444445,252.44010416666666C52.2265625,262.7083333333333,52.2265625,271.0416666666667,52.2265625,275.2083333333333L52.2265625,279.375" id="edge7" class="relation"></path><g class="classLabel"><rect class="box" x="30.890625" y="234.6875" width="55.03125" height="15.6875"></rect><text class="label" x="58.40225956860519" y="246.09165072765325" fill="red" text-anchor="middle">commente</text></g><g class="cardinality"><text class="type1" x="68.04088573587723" y="224.798377471762" fill="black" font-size="6">1..1</text></g><g class="cardinality"><text class="type2" x="57.2265625" y="266.875" fill="black" font-size="6">0..*</text></g><path d="M397.4586884469697,229.375L395.0925268308081,233.54166666666666C392.7263652146465,237.70833333333334,387.99404198232327,246.04166666666666,379.0494857249264,256.0416666666667C370.1049294675295,266.0416666666667,356.948140185059,277.7083333333333,350.36974554382374,283.5416666666667L343.79135090258853,289.375" id="edge8" class="relation"></path><g class="classLabel"><rect class="box" x="-2.5" y="-2.5" width="5" height="5"></rect><text class="label" x="374.2819506290078" y="262.3377300523205" fill="red" text-anchor="middle"></text></g><path d="M427.18359375,229.375L427.18359375,233.54166666666666C427.18359375,237.70833333333334,427.18359375,246.04166666666666,427.18359375,259.765625C427.18359375,273.4895833333333,427.18359375,292.6041666666667,427.18359375,311.71875C427.18359375,330.8333333333333,427.18359375,349.9479166666667,432.0603495988012,363.96875C436.9371054476025,377.9895833333333,446.69061714520495,386.9166666666667,451.56737299400623,391.3802083333333L456.4441288428074,395.84375" id="edge9" class="relation"></path><g class="classLabel"><rect class="box" x="-2.5" y="-2.5" width="5" height="5"></rect><text class="label" x="427.18359375" y="319.0518931288633" fill="red" text-anchor="middle"></text></g><path d="M515.21484375,328.7265625L515.21484375,335.44921875C515.21484375,342.171875,515.21484375,355.6171875,514.2568910721192,366.8033854166667C513.2989383942382,377.9895833333333,511.3830330384764,386.9166666666667,510.42508036059553,391.3802083333333L509.4671276827146,395.84375" id="edge10" class="relation" marker-end="url(#dependencyEnd)"></path><g class="classLabel"><rect class="box" x="-2.5" y="-2.5" width="5" height="5"></rect><text class="label" x="515.21484375" y="362.5900742435493" fill="red" text-anchor="middle"></text></g><path d="M670.05078125,344.0625L670.05078125,348.2291666666667C670.05078125,352.3958333333333,670.05078125,360.7291666666667,651.4140625,372.30958180465177C632.77734375,383.88999694263697,595.50390625,398.7174938852739,576.8671875,406.13124235659234L558.23046875,413.54499082791085" id="edge11" class="relation" marker-end="url(#dependencyEnd)"></path><g class="classLabel"><rect class="box" x="-2.5" y="-2.5" width="5" height="5"></rect><text class="label" x="625.7553607026164" y="386.68336506615196" fill="red" text-anchor="middle"></text></g><path d="M670.05078125,209.375L670.05078125,216.875C670.05078125,224.375,670.05078125,239.375,670.05078125,251.04166666666666C670.05078125,262.7083333333333,670.05078125,271.0416666666667,670.05078125,275.2083333333333L670.05078125,279.375" id="edge12" class="relation" marker-end="url(#dependencyEnd)"></path><g class="classLabel"><rect class="box" x="-2.5" y="-2.5" width="5" height="5"></rect><text class="label" x="670.05078125" y="244.375" fill="red" text-anchor="middle"></text></g></svg>